<?xml version="1.0" encoding="utf-8"?>
<svg xmlns="http://www.w3.org/2000/svg" viewBox="0 0 640 186" width="320" role="img" fill="none" aria-label="PRIAMTIV logo">
  <title>PRIAMTIV</title>
  <defs>
    <filter id="shadow" x="-20%" y="-20%" width="140%" height="140%">
      <feDropShadow dx="0.2" dy="0.8" stdDeviation="0.4"/>
    </filter>
  </defs>
  <g transform="matrix(1.82867, 0, 0, 1.942782, 15.972021, 15.656694)" style="">
    <circle cx="36" cy="36" r="42" fill="none" stroke="#FB923C" stroke-width="3" stroke-dasharray="9 6" filter="url(#shadow)"/>
    <g stroke="#E8F4F0" stroke-width="1" opacity="0.45" filter="url(#shadow)">
      <line x1="62.56" y1="42.441" x2="42" y2="62"/>
      <line x1="60.588" y1="30.385" x2="41.858" y2="11.269"/>
      <line x1="9.917" y1="42.165" x2="29.495" y2="61.257"/>
      <line x1="30.665" y1="10.803" x2="10.651" y2="30.394"/>
    </g>
    <g fill="#0F6E56" filter="url(#shadow)">
      <circle cx="36" cy="6" r="8"/>
      <circle cx="66" cy="36" r="8"/>
      <circle cx="36" cy="66" r="8"/>
      <circle cx="6" cy="36" r="8"/>
    </g>
    <g font-family="system-ui, sans-serif" font-size="8" font-weight="700" fill="#9FE1CB" text-anchor="middle" filter="url(#shadow)">
      <text x="36" y="9" style="white-space: pre;">P</text>
      <text x="66" y="39" style="white-space: pre;">R</text>
      <text x="36" y="69.5" style="white-space: pre;">I</text>
      <text x="5.5" y="39" style="white-space: pre;">A</text>
    </g>
    <circle cx="36" cy="36" r="14" fill="none" stroke="#9FE1CB" stroke-width="1" opacity="0.35"/>
    <circle cx="36" cy="36" r="12" fill="#085041" filter="url(#shadow)"/>
    <text x="36" y="40" text-anchor="middle" font-family="system-ui, sans-serif" font-size="11" font-weight="700" fill="#E1F5EE" filter="url(#shadow)" style="white-space: pre;">M</text>
  </g>
  <g transform="matrix(1.82867, 0, 0, 1.942782, 171.408997, 93.367996)" style="">
    <text style="fill: rgb(232, 244, 240); font-family: system-ui, -apple-system, sans-serif; font-size: 28px; font-weight: 700; letter-spacing: 3px; white-space: pre;"><tspan x="0" y="-6">PRIAM</tspan><tspan style="fill: #9FE1CB;">TIV</tspan></text>
    <text x="2" y="12" font-family="system-ui, -apple-system, sans-serif" font-size="10" letter-spacing="2.2" fill="#5DCAA5" filter="url(#shadow)" style="white-space: pre;">
      RISK &amp; ASSET MANAGEMENT
    </text>
  </g>
</svg>